{"extensionsUsed" : ["KHR_materials_pbrSpecularGlossiness"], "accessors" : [{"bufferView" : 0, "byteOffset" : 0, "componentType" : 5123, "count" : 324, "type" : "SCALAR", "max" : [169], "min" : [0]}, {"bufferView" : 1, "byteOffset" : 0, "componentType" : 5126, "count" : 170, "type" : "VEC3", "max" : [0.14861096441745758, 0.5738107562065125, 0.5395509004592896], "min" : [-0.14861097931861877, -0.5738107562065125, -0.5395509004592896]}, {"bufferView" : 1, "byteOffset" : 12, "componentType" : 5126, "count" : 170, "type" : "VEC3", "max" : [1.0000044107437134, 1.0000044107437134, 0.9942248463630676], "min" : [-1.0000044107437134, -1.0000044107437134, -0.9942248463630676]}, {"bufferView" : 1, "byteOffset" : 24, "componentType" : 5126, "count" : 170, "type" : "VEC3", "max" : [0.9942248463630676, 0.9825849533081055, 1.0000044107437134], "min" : [-0.9942248463630676, -0.9825849533081055, -1.0000044107437134]}, {"bufferView" : 1, "byteOffset" : 36, "componentType" : 5126, "count" : 170, "type" : "VEC2", "max" : [0.7769882678985596, 0.5195037126541138], "min" : [0.22710025310516357, 0.512332022190094]}], "asset" : {"generator" : "Aspose.3D 20.12.2", "version" : "2.0"}, "buffers" : [{"uri" : "buffer.bin", "byteLength" : 15104}], "bufferViews" : [{"buffer" : 0, "byteOffset" : 0, "byteLength" : 648, "target" : 34963}, {"buffer" : 0, "byteOffset" : 652, "byteLength" : 14256, "byteStride" : 44, "target" : 34962}, {"buffer" : 0, "byteOffset" : 14912, "byteLength" : 191}], "images" : [{"mimeType" : "image/png", "bufferView" : 2}], "materials" : [{"extensions" : {"KHR_materials_pbrSpecularGlossiness" : {"diffuseFactor" : [1, 1, 1, 1], "diffuseTexture" : {"index" : 0, "texCoord" : 0}, "specularFactor" : [0, 0, 0], "glossinessFactor" : 0}}, "pbrMetallicRoughness" : {"baseColorFactor" : [1, 1, 1, 1], "metallicFactor" : 1, "roughnessFactor" : 1}, "emissiveFactor" : [0, 0, 0], "alphaMode" : "OPAQUE", "doubleSided" : true}], "meshes" : [{"primitives" : [{"attributes" : {"POSITION" : 1, "TANGENT" : 2, "NORMAL" : 3, "TEXCOORD_0" : 4}, "indices" : 0, "material" : 0, "mode" : 4}]}], "nodes" : [{"matrix" : [0.800000011920929, 0, 0, 0, 0, 0.800000011920929, 0, 0, 0, 0, 0.800000011920929, 0, 0, 0, 2.168404344971009E-19, 1], "mesh" : 0, "name" : "arrow_a_whole.2"}, {"children" : [0], "matrix" : [0.20000000298023224, 0, 0, 0, 0, 0.20000000298023224, 0, 0, 0, 0, 0.20000000298023224, 0, 0, 0, 0, 1], "name" : "arrow_a.1"}, {"children" : [1], "matrix" : [0.009999999776482582, 0, 0, 0, 0, 0.009999999776482582, 0, 0, 0, 0, 0.009999999776482582, 0, 0, 0, 0, 1], "name" : "RootNode.0"}], "samplers" : [{"magFilter" : 9729, "minFilter" : 9985, "wrapS" : 10497, "wrapT" : 10497}], "scene" : 0, "scenes" : [{"nodes" : [2]}], "textures" : [{"sampler" : 0, "source" : 0}]}