{
  "accessors": [
    {
      "bufferView": 2,
      "componentType": 5126,
      "count": 8567,
      "max": [
        0.65635401010513306,
        0.17410740256309509,
        1.7932599782943726
      ],
      "min": [
        -0.65635412931442261,
        -0.17013600468635559,
        -0.012251339852809906
      ],
      "type": "VEC3"
    },
    {
      "bufferView": 2,
      "byteOffset": 102804,
      "componentType": 5126,
      "count": 8567,
      "max": [
        0.99991852045059204,
        0.99995231628417969,
        0.99576717615127563
      ],
      "min": [
        -0.99991852045059204,
        -0.99999481439590454,
        -0.99998331069946289
      ],
      "type": "VEC3"
    },
    {
      "bufferView": 3,
      "componentType": 5126,
      "count": 8567,
      "max": [
        1,
        0.99989932775497437,
        0.99999827146530151,
        1
      ],
      "min": [
        -1,
        -0.99999630451202393,
        -0.99972933530807495,
        -1
      ],
      "type": "VEC4"
    },
    {
      "bufferView": 1,
      "componentType": 5126,
      "count": 8567,
      "max": [
        -15.000980377197266,
        16.998050689697266
      ],
      "min": [
        -15.995490074157715,
        16.001779556274414
      ],
      "type": "VEC2"
    },
    {
      "bufferView": 0,
      "componentType": 5125,
      "count": 44958,
      "max": [
        8566
      ],
      "min": [
        0
      ],
      "type": "SCALAR"
    },
    {
      "bufferView": 2,
      "byteOffset": 205608,
      "componentType": 5126,
      "count": 1806,
      "max": [
        0.43922510743141174,
        0.60644829273223877,
        1.5327860116958618
      ],
      "min": [
        -0.44959229230880737,
        0.10814309865236282,
        0.97438669204711914
      ],
      "type": "VEC3"
    },
    {
      "bufferView": 2,
      "byteOffset": 227280,
      "componentType": 5126,
      "count": 1806,
      "max": [
        0.9540553092956543,
        0.99465948343276978,
        0.967032790184021
      ],
      "min": [
        -0.9540553092956543,
        -0.99465948343276978,
        -0.967032790184021
      ],
      "type": "VEC3"
    },
    {
      "bufferView": 1,
      "byteOffset": 68536,
      "componentType": 5126,
      "count": 1806,
      "max": [
        -15.246580123901367,
        16.998540878295898
      ],
      "min": [
        -15.592040061950684,
        16.595209121704102
      ],
      "type": "VEC2"
    },
    {
      "bufferView": 0,
      "byteOffset": 179832,
      "componentType": 5125,
      "count": 9036,
      "max": [
        1805
      ],
      "min": [
        0
      ],
      "type": "SCALAR"
    }
  ],
  "asset": {
    "extras": {
      "author": "dannysgallegos (https://sketchfab.com/dannysgallegos)",
      "license": "CC-BY-4.0 (http://creativecommons.org/licenses/by/4.0/)",
      "source": "https://sketchfab.com/3d-models/spiderman-2099-3c00ce12a96242db8c018b2f4da64439",
      "title": "Spiderman 2099"
    },
    "generator": "Sketchfab-8.59.0",
    "version": "2.0"
  },
  "bufferViews": [
    {
      "buffer": 0,
      "byteLength": 215976,
      "byteOffset": 0,
      "name": "floatBufferViews",
      "target": 34963
    },
    {
      "buffer": 0,
      "byteLength": 82984,
      "byteOffset": 215976,
      "byteStride": 8,
      "name": "floatBufferViews",
      "target": 34962
    },
    {
      "buffer": 0,
      "byteLength": 248952,
      "byteOffset": 298960,
      "byteStride": 12,
      "name": "floatBufferViews",
      "target": 34962
    },
    {
      "buffer": 0,
      "byteLength": 137072,
      "byteOffset": 547912,
      "byteStride": 16,
      "name": "floatBufferViews",
      "target": 34962
    }
  ],
  "buffers": [
    {
      "byteLength": 684984,
      "uri": "scene.bin"
    }
  ],
  "images": [
    {
      "uri": "textures/Model001_Material001_baseColor.png"
    },
    {
      "uri": "textures/Model001_Material001_normal.png"
    }
  ],
  "materials": [
    {
      "doubleSided": true,
      "name": "Model001_Material001",
      "normalTexture": {
        "index": 1,
        "scale": 1,
        "texCoord": 0
      },
      "pbrMetallicRoughness": {
        "baseColorFactor": [
          1,
          1,
          1,
          1
        ],
        "baseColorTexture": {
          "index": 0,
          "texCoord": 0
        },
        "metallicFactor": 0,
        "roughnessFactor": 0.59999999999999998
      }
    },
    {
      "alphaMode": "BLEND",
      "doubleSided": true,
      "name": "Model001_Material002",
      "pbrMetallicRoughness": {
        "baseColorFactor": [
          1,
          1,
          1,
          0.82253342575196542
        ],
        "baseColorTexture": {
          "index": 0,
          "texCoord": 0
        },
        "metallicFactor": 0,
        "roughnessFactor": 0.59999999999999998
      }
    }
  ],
  "meshes": [
    {
      "primitives": [
        {
          "attributes": {
            "NORMAL": 1,
            "POSITION": 0,
            "TANGENT": 2,
            "TEXCOORD_0": 3
          },
          "indices": 4,
          "material": 0,
          "mode": 4
        }
      ]
    },
    {
      "primitives": [
        {
          "attributes": {
            "NORMAL": 6,
            "POSITION": 5,
            "TEXCOORD_0": 7
          },
          "indices": 8,
          "material": 1,
          "mode": 4
        }
      ]
    }
  ],
  "nodes": [
    {
      "children": [
        1
      ],
      "name": "RootNode (gltf orientation matrix)",
      "rotation": [
        -0.70710678118654746,
        -0,
        -0,
        0.70710678118654757
      ]
    },
    {
      "children": [
        2
      ],
      "name": "RootNode (model correction matrix)"
    },
    {
      "children": [
        3,
        4
      ],
      "name": "spiderman 2099.obj.cleaner.materialmerger.gles"
    },
    {
      "mesh": 0,
      "name": ""
    },
    {
      "mesh": 1,
      "name": ""
    }
  ],
  "samplers": [
    {
      "magFilter": 9729,
      "minFilter": 9987,
      "wrapS": 10497,
      "wrapT": 10497
    }
  ],
  "scene": 0,
  "scenes": [
    {
      "name": "OSG_Scene",
      "nodes": [
        0
      ]
    }
  ],
  "textures": [
    {
      "sampler": 0,
      "source": 0
    },
    {
      "sampler": 0,
      "source": 1
    }
  ]
}

